<svg xmlns="http://www.w3.org/2000/svg" enable-background="new 0 0 51 51" viewBox="0 0 51 51"><path d="M26.03316 45.44376c-1.84707 1.18169-3.98747 1.81696-6.20177 1.81696-6.33525 0-11.49008-5.15429-11.49008-11.49008 0-6.32941 5.15483-11.4784 11.49008-11.4784 2.1741 0 4.27567.61596 6.09946 1.75638.33884-4.8825-.98939-7.26377 1.99264-10.28371-1.78571-2.00166-3.27537-3.44064-3.99238-4.09223h-9.0031c-.5668 1.36474-1.49909 4.70911 1.91196 6.65372.52121.29723.7038.96122.40657 1.48244-.29723.52175-.96175.7038-1.48297.40604-1.90971-1.08861-2.89375-2.54132-3.30881-4.04286-.5658 1.96278-.53077 4.14636 1.30569 5.79705.44691.40126.48406 1.08861.0828 1.53498-.40366.44741-1.09111.48236-1.53498.08174-2.19002-1.96756-2.61085-4.45627-2.20209-6.84612-4.33598 5.35711-9.6022 13.73563-9.6022 21.99903 0 7.72109 9.94873 11.76077 19.7775 11.76077 2.92029 0 5.73442-.35668 8.26088-1.03978C27.31069 48.42848 26.34937 47.03239 26.03316 45.44376zM14.80548 9.49759h8.89794l4.39523-7.84105c.14543-.31899-.01274-.64011-.08917-.76006C27.93304.77706 27.71118.5 27.28338.5H11.43675c-.4278 0-.64966.27706-.72609.39648-.07643.11995-.2346.44107-.05202.83171L14.80548 9.49759zM28.0997 20.70636c.64065 7.99947 22.35731 7.85838 22.39631-.28927 0-3.5795-4.81832-6.26678-11.20665-6.26678-3.767 0-7.10733.93256-9.16359 2.55837-.00073.0006-.001.00146-.00173.00206-1.19887.94412-2.03178 2.15764-2.03178 3.6899C28.09227 20.49989 28.09121 20.60711 28.0997 20.70636z"/><path d="M28.10395,33.16463v3.30085c0.14616,3.48231,4.90026,6.08944,11.18542,6.08944
		c6.34686,0,11.13831-2.65059,11.20665-6.17722v-3.22362c-2.32961,2.23639-6.35118,3.62555-11.20665,3.62555
		C34.44584,36.77963,30.43263,35.39512,28.10395,33.16463z"/><path d="M28.10395 41.11395v2.18988c.11729.38544-.82643 3.34404 3.43089 5.53379C33.57936 49.91085 36.33086 50.5 39.28937 50.5c6.37984 0 11.19815-2.68357 11.20665-6.24237V41.1034c-2.32961 2.23639-6.35118 3.62555-11.20665 3.62555C34.44584 44.72895 30.43263 43.34444 28.10395 41.11395zM39.28937 28.81385c-3.80403 0-8.29856-.92344-11.07847-3.49823-.03344-.03092-.07417-.05792-.10695-.08924 0 .33633 0 3.39923 0 3.28977.14616 3.48231 4.90026 6.08944 11.18542 6.08944 6.34686 0 11.13831-2.65059 11.20665-6.17722v-3.24233C47.75584 27.81723 43.12585 28.81385 39.28937 28.81385zM25.92992 28.73318c-1.7112-1.46545-3.85975-2.26691-6.09853-2.26691-5.13678 0-9.31605 4.17396-9.31605 9.30437 0 5.13678 4.17927 9.31605 9.31605 9.31605 2.23878 0 4.38733-.80199 6.09853-2.26744v-6.3261c-.00199-.06422-.0138-.12599-.0138-.19068 0-.02428.01221-.04452.0138-.0684V28.73318zM23.27183 32.47881l-2.25683 3.68141h1.31631c.2977 0 .49786.23253.49786.5106 0 .28611-.20799.49733-.49786.49733h-1.89378v1.22236h1.89378c.29881 0 .49786.23476.49786.5106 0 .28611-.20799.49733-.49786.49733h-1.89378v1.14222c0 .35138-.29085.60455-.60508.60455-.3121 0-.60508-.25087-.60508-.60455v-1.14222h-1.89378c-.29 0-.49786-.21134-.49786-.49733 0-.27536.19855-.5106.49786-.5106h1.89378v-1.22236h-1.89378c-.29 0-.49786-.21134-.49786-.49733 0-.27766.19973-.5106.49786-.5106h1.31631l-2.25683-3.68141c-.18199-.29305-.12139-.6203.08068-.80624.26938-.24998.75989-.27792 1.03394.20116l2.32477 4.07153 2.32477-4.07153c.27465-.48012.76668-.44917 1.03394-.20116C23.39241 31.85776 23.45448 32.18469 23.27183 32.47881z"/></svg>