<svg xmlns="http://www.w3.org/2000/svg" data-name="Layer 1" viewBox="0 0 512 512"><g data-name="&lt;Group&gt;"><path d="M130.135,157.408l-1.2-20.66a80.707,80.707,0,0,0-21.351,19.046A79.621,79.621,0,0,0,91.177,196H247.47a78.982,78.982,0,0,0-16.412-40.238,80.417,80.417,0,0,0-20.639-18.56l-1.109,20.184A25.1,25.1,0,0,1,184.147,181H155.3A25.094,25.094,0,0,1,130.135,157.408Z" data-name="&lt;Path&gt;"/><path d="M150.062,127.808a73.061,73.061,0,0,0-7.486,2.252l1.536,26.54A11.081,11.081,0,0,0,155.3,167h28.85a11.082,11.082,0,0,0,11.185-10.4l1.436-26.085a74.521,74.521,0,0,0-8.194-2.585,7.075,7.075,0,0,1-5.2-5.715l-2-12.213H157.261l-2,12.152A7,7,0,0,1,150.062,127.808Z" data-name="&lt;Path&gt;"/><rect width="172" height="15" x="82" y="210" data-name="&lt;Path&gt;"/><path d="M206,373.77V361.15a84.165,84.165,0,0,1-36.89,8.305A87.253,87.253,0,0,1,132,361.049v12.82l36.026,23.693Z" data-name="&lt;Path&gt;"/><path d="M116.065,332.561c14.376,14.763,33.193,22.894,53.265,22.894a74.186,74.186,0,0,0,53.429-22.894A77.6,77.6,0,0,0,245,278.2V239H94v39.2A77.429,77.429,0,0,0,116.065,332.561ZM188.71,255.1a7,7,0,0,1,7,7,7.1,7.1,0,1,0,14.207,0,7,7,0,0,1,14,0,21.1,21.1,0,1,1-42.207,0A7,7,0,0,1,188.71,255.1Zm-70.517,0a7,7,0,0,1,7,7,7.1,7.1,0,1,0,14.207,0,7,7,0,0,1,14,0,21.1,21.1,0,1,1-42.207,0A7,7,0,0,1,118.193,255.1Z" data-name="&lt;Compound Path&gt;"/><path d="M35 434.1V477H161V409.653L122.878 385H84.445A49.209 49.209 0 0 0 35 434.1zM304 434.1c0-27.264-22.544-49.1-49.808-49.1H215.456L175 409.752V477H304zM477.066 71.427a31.719 31.719 0 0 0-9.128-22.684A24.105 24.105 0 0 0 461 43.613V60.229a15.5 15.5 0 1 1-31 0V43.541a24.015 24.015 0 0 0-7.214 5.205 32.415 32.415 0 0 0-.141 45.363 33.969 33.969 0 0 0 8.523 6.077A6.971 6.971 0 0 1 435 106.443V240.125l20 .023v-133.7a7.191 7.191 0 0 1 3.917-6.18 41.176 41.176 0 0 0 8.946-6.211A31.843 31.843 0 0 0 477.066 71.427zM354 123.627V55.875a7.1 7.1 0 0 1 1.564-4.288L359 47.279V35H344V47.279l3.435 4.308A7.09 7.09 0 0 1 349 55.875v67.769z" data-name="&lt;Path&gt;"/><polygon points="371 137.573 332 137.698 332 143.849 371 143.974 371 137.573" data-name="&lt;Path&gt;"/><polygon points="335 173.227 335 240.012 368 240.132 368 173.22 364.296 157.953 338.976 157.871 335 173.227" data-name="&lt;Path&gt;"/></g></svg>