<svg xmlns="http://www.w3.org/2000/svg" width="26" height="26"><path d="M13 0C5.826 0 0 5.826 0 13s5.826 13 13 13 13-5.826 13-13S20.174 0 13 0zm0 1.002c6.633 0 12 5.365 12 11.998 0 6.633-5.367 12-12 12S1 19.633 1 13 6.367 1.002 13 1.002zM6 6v10h14V6H6zm2 1h10c.545 0 1 .455 1 1v6c0 .545-.455 1-1 1H8c-.545 0-1-.455-1-1V8c0-.545.455-1 1-1zm0 1v6h10V8H8zm3 9v2H9v1h8v-1h-1.992v-2h-1v2H12v-2h-1z" color="#000" font-family="sans-serif" font-weight="400" overflow="visible" style="line-height:normal;text-indent:0;text-align:start;text-decoration-line:none;text-transform:none;block-progression:tb"/></svg>