<svg xmlns="http://www.w3.org/2000/svg" width="64" height="64"><g style="line-height:125%"><path style="text-indent:0;text-align:start;line-height:125%;text-transform:none;block-progression:tb;marker:none;-inkscape-font-specification:Sans" d="M10.5 1.5c-1.099 0-2 .901-2 2s.901 2 2 2 2-.901 2-2-.901-2-2-2zm0 1c.558 0 1 .442 1 1s-.442 1-1 1-1-.442-1-1 .442-1 1-1zm12 .5a.5.5 0 1 0 0 1 .5.5 0 0 0 0-1zm-2 1.5a.5.5 0 1 0 0 1 .5.5 0 0 0 0-1zm4 0a.5.5 0 1 0 0 1 .5.5 0 0 0 0-1zM5.5 6C4.678 6 4 6.678 4 7.5S4.678 9 5.5 9 7 8.322 7 7.5 6.322 6 5.5 6zm15 .5a.5.5 0 1 0 0 1 .5.5 0 0 0 0-1zm4 0a.5.5 0 1 0 0 1 .5.5 0 0 0 0-1zM5.5 7c.282 0 .5.218.5.5 0 .282-.218.5-.5.5a.493.493 0 0 1-.5-.5c0-.282.218-.5.5-.5zm17 1a.5.5 0 1 0 0 1 .5.5 0 0 0 0-1zM5.312 11a.506.506 0 0 0 .22 1H6v3.25c-.06.023-.117.058-.219.094v-.031c-3.257 1.081-5.233 4.389-4.687 7.78C1.639 26.486 4.568 29 8 29h4v.219a.506.506 0 0 0 .5.781h1a.5.5 0 0 0 .5-.594V29h11v.219a.506.506 0 0 0 .5.781h1a.5.5 0 0 0 .5-.594V29h2c1.1 0 2-.9 2-2V16c0-1.1-.9-2-2-2a.5.5 0 0 0-.031 0v-1h.5a.5.5 0 1 0 0-1H23.5a.5.5 0 0 0-.156 0 .506.506 0 1 0 .156 1h.469v1H21v-1h.469a.5.5 0 1 0 0-1H15.5a.5.5 0 0 0-.156 0 .506.506 0 1 0 .156 1h.5v1h-6v-2h.469a.5.5 0 1 0 0-1H5.53a.5.5 0 0 0-.156 0 .506.506 0 0 0-.063 0zM7 12h2v3.406c0 .339.265.649.469.75.191.095.354.105.437.125h.031A5.96 5.96 0 0 1 13.97 21.5H2.03a6.013 6.013 0 0 1 4.094-5.219c.094-.033.248-.087.438-.187a.822.822 0 0 0 .312-.25c.078-.107.095-.283.094-.438H7V12zm10 1h3v5.5h-3V13zm7.969 0h3v6.5h-3V13zM10 15h6V23.219c0 1.388 1.12 2.5 2.5 2.5s2.5-1.112 2.5-2.5V15h2.969V23.219c0 1.388 1.12 2.5 2.5 2.5s2.5-1.112 2.5-2.5V15A.506.506 0 0 0 29 15c.563 0 1 .437 1 1v11c0 .563-.437 1-1 1H11.625a7.05 7.05 0 0 0 3.281-4.906 6.98 6.98 0 0 0-4.687-7.75l-.031-.031c-.092-.026-.14-.018-.188-.032V15zm7 4.5h3v3.719c0 .859-.664 1.5-1.5 1.5s-1.5-.641-1.5-1.5V19.5zm7.969 1h3v2.719c0 .859-.664 1.5-1.5 1.5s-1.5-.641-1.5-1.5V20.5zM2 22.5h11.938c-.014.144-.008.292-.032.438C13.433 25.852 10.947 28.002 8 28a6.022 6.022 0 0 1-5.938-5.063c-.024-.15-.05-.287-.062-.437z" color="#000" enable-background="accumulate" font-family="sans-serif" font-size="medium" font-weight="400" letter-spacing="0" overflow="visible" word-spacing="0"/></g></svg>