<svg xmlns="http://www.w3.org/2000/svg" enable-background="new 0 0 64 64" viewBox="0 0 64 64"><path d="M63.02 6.43l-3.78-3.78c-.63-.63-1.48-.98-2.36-.98-.9 0-1.74.35-2.37.98L39.65 17.5l.13.26c.63 1.26.38 2.8-.62 3.82-.63.62-1.47.97-2.34.97-.51 0-1.02-.12-1.48-.36l-.26-.13-1.77 1.79 2.4 2.4.12.12 3.49 3.49.12.12 2.37 2.38 1.78-1.78-.13-.26c-.64-1.27-.4-2.81.61-3.83.63-.62 1.47-.97 2.35-.97.51 0 1.02.12 1.48.36l.26.13 14.85-14.85C64.33 9.86 64.33 7.73 63.02 6.43zM57.44 9.11L44.93 21.6c-.12.12-.28.18-.44.18-.15 0-.31-.06-.43-.18-.11-.12-.17-.28-.17-.44 0-.15.06-.31.17-.43l12.49-12.5c.12-.11.28-.17.44-.17.16 0 .32.06.44.17C57.67 8.48 57.67 8.87 57.44 9.11zM30.88 30.34L17.55 17.02c-.16-.16-.22-.41-.16-.62 1.04-3.2.21-6.66-2.17-9.05-1.68-1.69-3.9-2.62-6.26-2.62-.33 0-.66.02-.99.06L7.14 4.88l5.06 5.05c.16.16.22.42.14.64l-1.61 4.52c-.06.17-.19.3-.36.36l-4.51 1.61c-.07.02-.14.04-.21.04-.16 0-.32-.07-.44-.18l-5.05-5.05L.06 12.7c-.3 2.68.63 5.32 2.56 7.25 1.68 1.68 3.91 2.61 6.27 2.61.94 0 1.87-.15 2.77-.45.06-.02.12-.03.19-.03.16 0 .32.06.43.18l13.32 13.32L30.88 30.34zM48.72 44.48c-.94 0-1.87.15-2.78.45-.06.02-.13.03-.2.03-.16 0-.31-.06-.43-.18l-9.98-9.98-5.26 5.26 9.99 9.99c.16.15.22.4.15.62-1.06 3.19-.23 6.65 2.17 9.05 1.68 1.68 3.9 2.61 6.25 2.61.33 0 .66-.02.99-.06l.84-.1-5.05-5.05c-.16-.17-.22-.41-.14-.64l1.59-4.52c.06-.17.2-.31.37-.37l4.53-1.6c.06-.02.13-.03.2-.03.17 0 .33.07.44.18l5.04 5.04.1-.84c.3-2.68-.63-5.32-2.55-7.24C53.31 45.41 51.08 44.48 48.72 44.48z"/><rect width="18.46" height="3.89" x="20.94" y="33.56" transform="rotate(-45.001 30.172 35.5)"/><polygon points="17.77 41.88 13.64 49.9 15.77 52.03 23.78 47.9 24.36 44.46 21.2 41.3"/></svg>