<svg xmlns="http://www.w3.org/2000/svg" fill-rule="evenodd" stroke-linejoin="round" stroke-miterlimit="2" clip-rule="evenodd" viewBox="0 0 101 101"><path d="M20.224,63.057c3.851,-0 6.977,3.127 6.977,6.978c0,3.851 -3.126,6.977 -6.977,6.977c-3.851,-0 -6.978,-3.126 -6.978,-6.977c0,-3.851 3.127,-6.978 6.978,-6.978Zm58.737,-0c3.85,-0 6.977,3.127 6.977,6.978c0,3.851 -3.127,6.977 -6.977,6.977c-3.851,-0 -6.978,-3.126 -6.978,-6.977c0,-3.851 3.127,-6.978 6.978,-6.978Zm-35.128,-0c3.851,-0 6.978,3.127 6.978,6.978c0,3.851 -3.127,6.977 -6.978,6.977c-3.851,-0 -6.977,-3.126 -6.977,-6.977c0,-3.851 3.126,-6.978 6.977,-6.978Zm17.225,6.884l-6.747,-0c-0.051,-5.74 -4.727,-10.384 -10.478,-10.384c-5.751,-0 -10.426,4.644 -10.477,10.384l-2.655,-0c-0.051,-5.74 -4.726,-10.384 -10.477,-10.384c-5.751,-0 -10.427,4.644 -10.478,10.384l-1.366,-0c-3.799,0.001 -6.88,-3.079 -6.88,-6.88l0,-32.192c0,-3.8 3.081,-6.88 6.88,-6.88l47.771,-0c2.71,-0.001 4.907,2.197 4.907,4.907c0,11.847 0,41.045 0,41.045Zm3.5,-40.504l14.768,-0c11.142,-0 20.174,9.032 20.174,20.174l0,13.43c0,1.83 -0.727,3.585 -2.021,4.88c-1.294,1.293 -3.049,2.02 -4.879,2.02l-3.162,-0c-0.051,-5.74 -4.727,-10.384 -10.477,-10.384c-5.751,-0 -10.427,4.644 -10.478,10.384l-3.925,-0l0,-40.504Zm26.672,18.921c0,-3.048 -1.211,-5.971 -3.366,-8.127c-2.155,-2.155 -5.079,-3.366 -8.126,-3.366l-6.371,-0c-2.158,-0 -3.907,1.75 -3.907,3.908l0,7.585c0,2.158 1.749,3.908 3.907,3.908l13.955,-0c2.158,-0 3.908,-1.75 3.908,-3.908Zm-74.777,-14.719l0,16.05c0,1.078 0.875,1.953 1.954,1.953c1.078,-0 1.954,-0.875 1.954,-1.953l0,-16.05c0,-1.078 -0.876,-1.953 -1.954,-1.953c-1.079,-0 -1.954,0.875 -1.954,1.953Zm14.653,-0l0,16.05c0,1.078 0.876,1.953 1.954,1.953c1.079,-0 1.954,-0.875 1.954,-1.953l0,-16.05c0,-1.078 -0.875,-1.953 -1.954,-1.953c-1.078,-0 -1.954,0.875 -1.954,1.953Zm14.654,-0l0,16.05c0,1.078 0.875,1.953 1.954,1.953c1.078,-0 1.954,-0.875 1.954,-1.953l0,-16.05c0,-1.078 -0.876,-1.953 -1.954,-1.953c-1.079,-0 -1.954,0.875 -1.954,1.953Zm41.562,14.719c0,-2.012 -0.799,-3.941 -2.221,-5.364c-1.423,-1.422 -3.352,-2.221 -5.363,-2.221l-6.371,-0l0,7.585l13.955,-0Z"/></svg>