<?xml version="1.0" standalone="no"?>
<!DOCTYPE svg PUBLIC "-//W3C//DTD SVG 20010904//EN"
 "http://www.w3.org/TR/2001/REC-SVG-20010904/DTD/svg10.dtd">
<svg version="1.0" xmlns="http://www.w3.org/2000/svg"
 width="502.000000pt" height="502.000000pt" viewBox="0 0 502.000000 502.000000"
 preserveAspectRatio="xMidYMid meet">
<metadata>
Created by potrace 1.14, written by Peter Selinger 2001-2017
</metadata>
<g transform="translate(0.000000,502.000000) scale(0.100000,-0.100000)"
fill="#000000" stroke="none">
<path d="M488 3072 c-73 -80 -145 -159 -160 -176 -30 -32 -25 -34 -99 29 -60
51 -131 109 -151 124 -17 11 -21 11 -33 -5 -8 -11 -13 -22 -12 -26 4 -11 268
-228 278 -228 5 0 9 3 9 8 0 4 19 27 41 52 113 124 141 154 136 144 -3 -6 -8
-21 -10 -35 -3 -13 -6 -28 -8 -34 -2 -5 7 -28 18 -51 l21 -40 -50 -205 c-27
-112 -51 -212 -53 -221 -4 -17 9 -18 156 -18 l160 0 -3 -27 -3 -28 -166 0
c-107 1 -166 -3 -167 -10 -1 -11 -1 -12 -38 -159 l-27 -109 74 -70 c41 -38
104 -98 141 -133 37 -35 72 -64 78 -64 6 0 41 29 78 64 37 35 100 95 141 133
l74 70 -52 209 c-29 115 -54 216 -56 224 -7 32 -56 237 -65 270 -19 74 -19 82
4 119 21 33 22 39 10 79 l-12 44 55 -62 c31 -34 70 -79 87 -100 17 -21 36 -41
43 -44 10 -4 83 51 218 166 11 9 31 25 44 35 21 17 22 21 10 41 -17 27 -24 27
-47 5 -10 -10 -51 -45 -92 -78 -41 -33 -84 -68 -94 -77 -26 -24 -31 -23 -56 9
-11 14 -60 69 -108 121 -95 104 -91 99 -144 159 l-37 42 -133 -147z"/>
<path d="M1726 3046 c-113 -42 -163 -182 -106 -300 44 -93 163 -132 264 -88
53 24 66 46 42 70 -15 15 -19 15 -51 -2 -68 -37 -149 -17 -180 45 -38 72 -14
174 48 206 39 20 97 19 138 -2 31 -17 33 -17 50 6 21 28 18 34 -29 58 -46 22
-124 25 -176 7z"/>
<path d="M2115 3045 c-84 -29 -140 -128 -128 -225 20 -171 233 -241 360 -118
74 71 78 201 10 283 -56 68 -151 92 -242 60z m162 -81 c29 -22 35 -35 47 -100
7 -34 -14 -100 -38 -123 -33 -31 -105 -42 -147 -22 -109 52 -93 246 23 270 45
10 77 3 115 -25z"/>
<path d="M2470 2850 l0 -210 41 0 41 0 -4 80 c-2 47 1 81 7 84 24 8 51 -15 99
-85 49 -70 53 -74 94 -77 23 -2 42 -1 42 2 0 6 -88 135 -106 157 -13 14 -10
19 20 40 78 53 63 176 -24 206 -19 7 -74 12 -122 12 l-88 1 0 -210z m197 124
c36 -49 -8 -114 -77 -114 l-40 0 0 71 0 72 52 -5 c34 -4 56 -12 65 -24z"/>
<path d="M2844 2850 l0 -210 38 0 c23 0 38 5 39 13 0 6 1 40 1 73 l0 61 68 5
c110 8 158 59 147 154 -9 86 -61 114 -207 114 l-85 0 -1 -210z m174 144 c33
-9 51 -51 40 -92 -10 -37 -38 -52 -98 -52 l-39 0 1 75 1 75 36 0 c20 0 46 -3
59 -6z"/>
<path d="M3314 3047 c-94 -38 -140 -113 -131 -216 10 -121 84 -186 214 -186
63 0 76 3 114 30 23 17 53 50 67 75 20 38 23 55 19 113 -5 76 -36 132 -93 167
-40 25 -146 35 -190 17z m140 -69 c36 -16 56 -51 63 -108 11 -98 -40 -163
-128 -162 -85 1 -136 65 -126 157 6 60 19 86 56 108 31 19 99 22 135 5z"/>
<path d="M3665 2853 l0 -208 38 -3 c42 -4 40 -8 38 89 0 58 2 68 19 72 27 7
41 -7 94 -90 l46 -73 45 0 45 0 -56 85 c-32 47 -62 85 -68 85 -6 0 4 10 22 21
58 38 78 109 47 168 -21 42 -79 61 -183 61 l-87 0 0 -207z m196 118 c9 -11 16
-29 14 -39 -2 -9 -4 -23 -4 -29 -1 -18 -55 -43 -94 -43 l-34 0 0 71 -1 71 51
-5 c36 -3 56 -11 68 -26z"/>
<path d="M4160 3057 c0 -3 -141 -365 -157 -404 -4 -9 7 -13 36 -13 39 0 41 1
58 50 l18 50 85 0 86 0 21 -50 c20 -47 24 -50 57 -50 20 0 36 3 36 7 0 7 -105
284 -120 318 -5 11 -16 37 -24 58 -14 34 -18 37 -55 37 -23 0 -41 -1 -41 -3z
m105 -247 c7 -12 6 -12 -67 -14 -32 -1 -58 2 -58 5 0 4 14 46 31 93 l32 86 27
-80 c16 -43 31 -84 35 -90z"/>
<path d="M4370 3031 c0 -34 8 -38 72 -36 26 1 49 -3 51 -9 2 -6 3 -86 2 -178
l0 -168 37 0 38 0 1 53 c0 28 1 108 2 177 l2 124 55 2 c30 1 58 2 63 3 4 0 7
15 7 31 l0 30 -165 0 -165 0 0 -29z"/>
<path d="M4746 2852 l0 -207 132 -3 132 -3 0 31 c0 33 3 33 -112 32 -38 -1
-68 2 -69 6 0 4 -1 31 -3 60 l-2 52 73 0 73 0 0 30 0 30 -73 0 -73 0 2 48 c1
26 2 53 3 60 1 7 9 12 19 11 9 -1 50 -1 90 0 l72 1 0 30 0 30 -132 0 -133 0 1
-208z"/>
<path d="M1643 2200 l0 -211 126 3 c118 3 126 4 126 23 0 19 -7 20 -97 20
l-98 0 0 73 0 72 81 0 c78 0 80 1 77 23 -3 21 -8 22 -78 22 l-75 0 -3 70 -3
71 98 -1 c95 0 98 1 99 23 1 22 0 22 -126 22 l-128 0 1 -210z"/>
<path d="M1939 2408 c0 -2 -2 -13 -3 -26 -2 -20 1 -23 28 -22 17 1 48 2 69 1
l37 -1 0 -185 0 -185 28 0 28 0 0 185 -1 185 45 1 c25 1 55 0 68 -1 17 -1 22
4 22 24 l0 26 -160 0 c-88 0 -160 -1 -161 -2z"/>
<path d="M2317 2208 c1 -112 2 -206 2 -210 1 -5 13 -8 29 -8 l27 0 -1 95 0 96
110 -3 111 -3 0 -90 0 -90 28 -3 c17 -2 27 1 28 10 0 15 0 351 -1 386 0 19 -5
23 -27 20 l-28 -3 0 -90 0 -90 -110 -2 -111 -2 0 92 0 92 -29 3 -30 3 2 -203z"/>
<path d="M2764 2203 l1 -208 28 -3 27 -3 0 210 0 211 -29 0 -28 0 1 -207z"/>
<path d="M3031 2398 c-52 -18 -98 -70 -116 -131 -18 -62 -13 -112 17 -174 61
-129 262 -137 345 -15 64 95 28 258 -68 308 -41 20 -133 27 -178 12z m145 -54
c51 -25 77 -81 72 -158 -4 -70 -25 -107 -75 -131 -70 -34 -160 -6 -192 60 -20
39 -20 132 -1 170 34 67 123 94 196 59z"/>
<path d="M3393 2200 l1 -210 28 0 c27 0 27 0 30 77 l3 76 57 3 c32 2 70 9 85
16 62 31 89 115 56 178 -27 52 -71 70 -175 70 l-86 0 1 -210z m164 161 c38 -3
66 -77 47 -126 -10 -25 -58 -45 -109 -45 l-45 0 0 88 0 88 48 -2 c26 -1 52 -2
59 -3z"/>
<path d="M3749 2370 c0 -22 -1 -87 -1 -145 0 -250 -1 -235 30 -235 l27 0 0
210 0 210 -27 0 c-26 0 -28 -3 -29 -40z"/>
<path d="M4020 2378 c-7 -18 -19 -46 -26 -63 -10 -24 -87 -223 -119 -307 -6
-14 -2 -18 18 -18 30 0 42 13 59 68 l13 42 95 0 95 0 20 -52 c17 -44 25 -54
48 -56 15 -2 27 0 27 5 0 4 -36 98 -79 208 -76 194 -80 200 -109 203 -25 3
-31 -2 -42 -30z m51 -236 c-35 -2 -68 1 -73 6 -7 7 40 155 59 186 3 5 22 -35
42 -90 l37 -99 -65 -3z"/>
</g>
</svg>
